<?xml version="1.0" encoding="utf-8"?>
<!-- Generator: Adobe Illustrator 22.1.0, SVG Export Plug-In . SVG Version: 6.00 Build 0)  -->
<svg version="1.1" id="Layer_1" xmlns="http://www.w3.org/2000/svg" xmlns:xlink="http://www.w3.org/1999/xlink" x="0px" y="0px"
	 viewBox="0 0 400 400" style="enable-background:new 0 0 400 400;" xml:space="preserve">
<style type="text/css">
	.st0{fill:none;stroke:#824737;stroke-width:0.75;stroke-miterlimit:10;}
	.st1{fill:#937963;}
	.st2{fill:#00AEEF;}
	.st3{fill:#F26422;}
</style>
<filter id="dropshadow" height="130%">
  <feGaussianBlur in="SourceAlpha" stdDeviation="3"/> <!-- stdDeviation is how much to blur -->
  <feOffset dx="2" dy="2" result="offsetblur"/> <!-- how much to offset -->
  <feComponentTransfer>
    <feFuncA type="linear" slope="0.5"/> <!-- slope is the opacity of the shadow -->
  </feComponentTransfer>
  <feMerge> 
    <feMergeNode/> <!-- this contains the offset blurred image -->
    <feMergeNode in="SourceGraphic"/> <!-- this contains the element that the filter is applied to -->
  </feMerge>
</filter>
<line class="st0" x1="247.1" y1="336.7" x2="246.4" y2="251.2"/>
<line class="st0" x1="163.8" y1="351.7" x2="161.9" y2="249.8"/>
<line class="st0" x1="165.5" y1="331.6" x2="175.5" y2="283.4"/>
<line class="st0" x1="243.7" y1="328.8" x2="225.5" y2="288"/>
<path class="st1" d="M223.3,392h-37.7c-13.4,0-24.2-13.6-24.2-30.4l-0.7-35.6l12.8,5.5c19.3,6.5,39.5,6.7,58.9,0.7l15.2-4.8v33.9
	C247.8,378.3,236.8,392,223.3,392z"/>
<g>
	<path class="st2" d="M203.9,14c-72.6,0-124.2,44.8-124.2,99c0,20.1,5.4,36.6,14.9,52.9c3.2,5.6,51.1,74.3,51.1,74.3l30.2,43.4
		c3.3,4.8,8.8,7.7,14.7,7.7H217c5.9,0,11.4-2.9,14.8-7.7l30.2-43.4c0,0,41.3-48.5,50.8-74.3c5.2-14.1,12.2-34.1,12.2-54.2
		C325.2,57.5,276.5,14,203.9,14z"/>
</g>
<path class="st3" d="M174.6,110.3c-4.9,37.9,12.2,180.4,12.2,180.4c-0.5,1.8-10.2-4.4-12.2-8.1c-2.3-4.3-55.6-143.8-47.5-192.6
	c9-54.2,77.3-75.9,77.3-75.9C204.7,12.7,182.7,47.9,174.6,110.3z"/>
<path class="st3" d="M231.6,106.3c4.1,38-12.2,184.4-12.2,184.4c0.3,1.3,9.5-1.4,13.6-8.1c1.4-2.4,62.4-146.5,55.6-185.8
	C279.4,43.6,204.5,14,204.5,14S227.5,68.3,231.6,106.3z"/>
</svg>
